<svg width="814" height="1024" viewBox="0 0 814 1024" fill="none" xmlns="http://www.w3.org/2000/svg">
<g clip-path="url(#clip0)">
<path d="M612.092 292.334C468.71 330.753 383.635 478.189 422.073 621.641C460.511 765.094 607.906 850.24 751.288 811.821C894.67 773.402 979.744 625.966 941.306 482.513C902.868 339.061 755.474 253.915 612.092 292.334Z" stroke="#E8E8EE" stroke-width="2"/>
<path d="M581.159 176.892C374.052 232.387 251.167 445.35 306.688 652.559C362.21 859.768 575.113 982.757 782.22 927.262C989.328 871.768 1112.21 658.805 1056.69 451.596C1001.17 244.387 788.267 121.398 581.159 176.892Z" stroke="#E8E8EE" stroke-width="2"/>
<path d="M569.228 132.365C337.541 194.445 200.072 432.683 262.183 664.484C324.294 896.285 562.464 1033.87 794.151 971.79C1025.84 909.709 1163.31 671.471 1101.2 439.671C1039.09 207.87 800.915 70.2845 569.228 132.365Z" stroke="#E8E8EE" stroke-width="2"/>
<path d="M538.738 18.5726C244.235 97.4843 69.4957 400.313 148.446 694.96C227.396 989.606 530.14 1164.49 824.642 1085.58C1119.14 1006.67 1293.88 703.842 1214.93 409.195C1135.98 114.548 833.24 -60.3392 538.738 18.5726Z" stroke="#E8E8EE" stroke-width="2"/>
<path d="M547.092 768.435C534.347 771.85 526.785 784.955 530.201 797.707C533.618 810.458 546.72 818.026 559.465 814.611C572.21 811.196 579.772 798.091 576.355 785.34C572.939 772.588 559.837 765.02 547.092 768.435Z" fill="#E8E8EE" stroke="#7700FF" stroke-width="12"/>
<path d="M652.399 264.742C640.565 267.913 633.543 280.082 636.715 291.923C639.888 303.763 652.054 310.791 663.889 307.62C675.723 304.449 682.745 292.279 679.573 280.439C676.4 268.598 664.234 261.571 652.399 264.742Z" fill="#7700FF"/>
<path d="M371.356 841.153C359.521 844.324 352.499 856.493 355.672 868.334C358.844 880.174 371.01 887.202 382.845 884.031C394.68 880.86 401.702 868.691 398.529 856.85C395.356 845.01 383.19 837.982 371.356 841.153Z" fill="#F4F4F5"/>
<path d="M305.202 442.616C309.754 441.397 314.433 444.1 315.654 448.654C316.874 453.208 314.173 457.888 309.621 459.108C305.069 460.327 300.39 457.624 299.17 453.07C297.95 448.516 300.651 443.836 305.202 442.616Z" fill="#F4F4F5" stroke="#FF4F12" stroke-width="8"/>
<path d="M297.658 473.802C301.3 472.827 305.043 474.989 306.019 478.632C306.996 482.276 304.835 486.02 301.193 486.996C297.552 487.972 293.809 485.809 292.832 482.166C291.856 478.523 294.017 474.778 297.658 473.802Z" fill="#FF4F12"/>
<path d="M295.543 495.58C298.274 494.848 301.082 496.47 301.814 499.202C302.546 501.935 300.926 504.743 298.195 505.475C295.464 506.207 292.656 504.585 291.924 501.853C291.192 499.12 292.812 496.312 295.543 495.58Z" fill="#F4F4F5"/>
<path d="M293.59 514.663C296.321 513.931 299.128 515.553 299.861 518.285C300.593 521.018 298.972 523.826 296.241 524.558C293.51 525.29 290.703 523.668 289.97 520.935C289.238 518.203 290.859 515.395 293.59 514.663Z" fill="#F4F4F5"/>
<path d="M233.787 222.246C236.518 221.514 239.326 223.136 240.058 225.869C240.79 228.601 239.17 231.409 236.439 232.141C233.708 232.873 230.9 231.251 230.168 228.519C229.436 225.786 231.056 222.978 233.787 222.246Z" fill="#E8E8EE"/>
<path d="M247.56 204.415C250.291 203.683 253.099 205.305 253.831 208.038C254.563 210.77 252.942 213.578 250.211 214.31C247.48 215.042 244.673 213.42 243.941 210.688C243.208 207.955 244.829 205.147 247.56 204.415Z" fill="#E8E8EE"/>
<path d="M619.229 286.003C621.96 285.271 624.767 286.893 625.5 289.625C626.232 292.357 624.611 295.166 621.88 295.898C619.149 296.629 616.342 295.008 615.609 292.275C614.877 289.543 616.498 286.734 619.229 286.003Z" fill="#E8E8EE"/>
<path d="M602.745 290.419C605.476 289.688 608.284 291.309 609.016 294.042C609.748 296.774 608.128 299.583 605.397 300.314C602.665 301.046 599.858 299.424 599.126 296.692C598.394 293.959 600.014 291.151 602.745 290.419Z" fill="#E8E8EE"/>
<path d="M554.017 309.663C556.748 308.931 559.556 310.553 560.288 313.285C561.02 316.018 559.399 318.826 556.668 319.558C553.937 320.289 551.13 318.668 550.398 315.935C549.665 313.203 551.286 310.394 554.017 309.663Z" fill="#7700FF"/>
<path d="M539.462 317.981C542.193 317.25 545.001 318.871 545.733 321.604C546.465 324.336 544.845 327.145 542.114 327.876C539.383 328.608 536.575 326.986 535.843 324.254C535.111 321.522 536.731 318.713 539.462 317.981Z" fill="#7700FF"/>
<path d="M478.603 884.833C479.627 881.204 483.399 879.093 487.027 880.119C490.655 881.144 492.766 884.918 491.742 888.548C490.717 892.177 486.946 894.288 483.317 893.262C479.689 892.237 477.578 888.463 478.603 884.833Z" fill="#FF4F12"/>
<path d="M161.082 732.228C164.724 731.252 168.467 733.415 169.443 737.058C170.419 740.701 168.259 744.445 164.617 745.421C160.976 746.397 157.232 744.235 156.256 740.591C155.28 736.948 157.441 733.204 161.082 732.228Z" fill="#7700FF"/>
<path d="M336.371 278.718C340.012 277.743 343.756 279.905 344.732 283.548C345.708 287.192 343.548 290.936 339.906 291.912C336.265 292.887 332.521 290.725 331.545 287.082C330.569 283.439 332.73 279.694 336.371 278.718Z" fill="#F4F4F5"/>
<path d="M497.522 894.581C498.29 891.859 501.119 890.276 503.84 891.045C506.561 891.814 508.144 894.645 507.376 897.367C506.608 900.089 503.779 901.672 501.058 900.903C498.336 900.133 496.753 897.303 497.522 894.581Z" fill="#FF4F12"/>
<path d="M239.105 878.357C241.836 877.625 244.643 879.247 245.376 881.98C246.108 884.712 244.487 887.52 241.756 888.252C239.025 888.984 236.218 887.362 235.485 884.63C234.753 881.897 236.374 879.089 239.105 878.357Z" fill="#7700FF"/>
</g>
<defs>
<clipPath id="clip0">
<rect width="1110.08" height="1106.36" fill="white" transform="translate(1358.93 943.304) rotate(165)"/>
</clipPath>
</defs>
</svg>
